<svg xmlns="http://www.w3.org/2000/svg" width="1180" height="520" viewBox="0 0 1180 520" role="img" aria-labelledby="title desc">
  <title id="title">DrugPipe workflow</title>
  <desc id="desc">Workflow from GWAS summary statistics through QC, loci, candidate genes, evidence integration, ranked targets, and reports.</desc>
  <defs>
    <marker id="arrow" markerWidth="10" markerHeight="10" refX="8" refY="5" orient="auto">
      <path d="M0 0 L10 5 L0 10 Z" fill="#64748b"/>
    </marker>
    <style>
      .box { fill: #ffffff; stroke: #cbd5e1; stroke-width: 1.5; }
      .primary { fill: #ecfeff; stroke: #0891b2; }
      .evidence { fill: #f0fdf4; stroke: #16a34a; }
      .output { fill: #fffbeb; stroke: #d97706; }
      .label { font: 700 16px Inter, Arial, sans-serif; fill: #0f172a; }
      .sub { font: 13px Inter, Arial, sans-serif; fill: #475569; }
      .chip { font: 700 14px Inter, Arial, sans-serif; fill: #14532d; }
      .line { stroke: #64748b; stroke-width: 2; fill: none; marker-end: url(#arrow); }
      .softline { stroke: #94a3b8; stroke-width: 1.8; fill: none; marker-end: url(#arrow); }
    </style>
  </defs>

  <rect width="1180" height="520" fill="#f8fafc"/>
  <text x="42" y="54" font-family="Inter, Arial, sans-serif" font-size="28" font-weight="800" fill="#0f172a">DrugPipe workflow</text>
  <text x="42" y="82" font-family="Inter, Arial, sans-serif" font-size="15" fill="#475569">Candidate genes anchor evidence integration before target ranking and Markdown outputs.</text>

  <g transform="translate(36 150)">
    <rect class="box primary" x="0" y="0" width="138" height="84" rx="12"/>
    <text class="label" x="18" y="34">GWAS inputs</text>
    <text class="sub" x="18" y="58">summary stats</text>
  </g>
  <path class="line" d="M174 192 H212"/>

  <g transform="translate(212 150)">
    <rect class="box primary" x="0" y="0" width="116" height="84" rx="12"/>
    <text class="label" x="25" y="34">QC</text>
    <text class="sub" x="18" y="58">harmonise</text>
  </g>
  <path class="line" d="M328 192 H366"/>

  <g transform="translate(366 150)">
    <rect class="box primary" x="0" y="0" width="132" height="84" rx="12"/>
    <text class="label" x="22" y="34">Loci</text>
    <text class="sub" x="22" y="58">lead windows</text>
  </g>
  <path class="line" d="M498 192 H536"/>

  <g transform="translate(536 150)">
    <rect class="box primary" x="0" y="0" width="160" height="84" rx="12"/>
    <text class="label" x="20" y="34">Candidate genes</text>
    <text class="sub" x="20" y="58">locus-to-gene</text>
  </g>
  <path class="line" d="M696 192 H734"/>

  <g transform="translate(734 150)">
    <rect class="box evidence" x="0" y="0" width="176" height="84" rx="12"/>
    <text class="label" x="22" y="34">Evidence integration</text>
    <text class="sub" x="22" y="58">support per gene</text>
  </g>
  <path class="line" d="M910 192 H948"/>

  <g transform="translate(948 150)">
    <rect class="box output" x="0" y="0" width="132" height="84" rx="12"/>
    <text class="label" x="20" y="34">Ranked targets</text>
    <text class="sub" x="20" y="58">hypotheses</text>
  </g>
  <path class="line" d="M1014 234 V288"/>

  <g transform="translate(902 288)">
    <rect class="box output" x="0" y="0" width="224" height="72" rx="12"/>
    <text class="label" x="28" y="30">Reports and cards</text>
    <text class="sub" x="28" y="52">Markdown outputs</text>
  </g>

  <g transform="translate(224 326)">
    <rect class="box evidence" x="0" y="0" width="130" height="54" rx="12"/>
    <text class="chip" x="22" y="33">Fine-mapping</text>
  </g>
  <g transform="translate(384 326)">
    <rect class="box evidence" x="0" y="0" width="130" height="54" rx="12"/>
    <text class="chip" x="26" y="33">QTL / omics</text>
  </g>
  <g transform="translate(544 326)">
    <rect class="box evidence" x="0" y="0" width="130" height="54" rx="12"/>
    <text class="chip" x="22" y="33">Bone biology</text>
  </g>
  <g transform="translate(704 326)">
    <rect class="box evidence" x="0" y="0" width="130" height="54" rx="12"/>
    <text class="chip" x="23" y="33">MR + safety</text>
  </g>
  <g transform="translate(864 326)">
    <rect class="box evidence" x="0" y="0" width="130" height="54" rx="12"/>
    <text class="chip" x="20" y="33">Druggability</text>
  </g>

  <path class="softline" d="M432 234 V274 H289 V326"/>
  <path class="softline" d="M616 234 V274 H449 V326"/>
  <path class="softline" d="M616 234 V274 H609 V326"/>
  <path class="softline" d="M616 234 V274 H769 V326"/>
  <path class="softline" d="M616 234 V274 H929 V326"/>

  <path class="softline" d="M289 326 V292 H822 V234"/>
  <path class="softline" d="M449 326 V292 H822 V234"/>
  <path class="softline" d="M609 326 V292 H822 V234"/>
  <path class="softline" d="M769 326 V292 H822 V234"/>
  <path class="softline" d="M929 326 V292 H822 V234"/>
</svg>
